# xmcd
#
# Track frame offsets: 
#        150
#        15040
#        27067
#        39330
#        59402
#        73354
#        88771
#        108033
#        118686
#        136757
#        155263
#        168169
#        184961
#        202560
#
# Disc length: 2949 seconds
#
# Revision: 0
# Processed by: cddbd v1.5.2PL0 Copyright (c) Steve Scherf et al.
# Submitted via: ExactAudioCopy v0.99pb3
#
DISCID=a40b830e
DTITLE=Mare Edstrom - Inside The Blues
DYEAR=2004
DGENRE=Blues
TTITLE0=Treat Me So Low Down
TTITLE1=That's Alright
TTITLE2=Cherry Wine
TTITLE3=Statesboro Blues
TTITLE4=North Memphis Blues
TTITLE5=Tried So Hard
TTITLE6=The Thrill Is Gone
TTITLE7=Can't Be Satisfied
TTITLE8=I Feel The Same
TTITLE9=Spiderman Blues
TTITLE10=Tell Me
TTITLE11=Rollin' And Tumblin' - Got Mud In My Soul
TTITLE12=Stop Breakin' Sown Blues
TTITLE13=In My Time Of Dyin'
EXTD=
EXTT0=
EXTT1=
EXTT2=
EXTT3=
EXTT4=
EXTT5=
EXTT6=
EXTT7=
EXTT8=
EXTT9=
EXTT10=
EXTT11=
EXTT12=
EXTT13=
PLAYORDER=
